<svg xmlns="http://www.w3.org/2000/svg" xmlns:xlink="http://www.w3.org/1999/xlink" width="188.096" height="210.06" viewBox="0 0 188.096 210.06">
  <defs>
    <clipPath id="clip-path">
      <rect id="Rectangle_40" data-name="Rectangle 40" width="181.263" height="106.565" transform="translate(0)" fill="#3ec3de"/>
    </clipPath>
  </defs>
  <g id="Group_76" data-name="Group 76" transform="matrix(0.545, -0.839, 0.839, 0.545, -46.937, 230.598)">
    <g id="Group_48" data-name="Group 48" transform="translate(91.465 -3.432)" clip-path="url(#clip-path)">
      <path id="Path_208" data-name="Path 208" d="M1042.757,253.7c-.171,1.662-6.181,3.8-13.514,3.2l-13.613-1.107-4.266,5.029.456.037a.362.362,0,0,1,.353.379l-.42,4.08a.381.381,0,0,1-.424.314l-3.78-.307-4.212,4.968.93.076a.361.361,0,0,1,.353.377l-.42,4.08a.38.38,0,0,1-.425.314l-4.254-.346-8.682,10.242a1.47,1.47,0,0,1-1.235.485l-3.221-.262a.424.424,0,0,1-.388-.6L994.228,269l-.474-.039a.905.905,0,0,1-.382-.114c-.1-.058-.157-.135-.148-.212.016-.155.3-.257.588-.234l.7.057,2.9-5.506.258-2.506-.716-.058a.888.888,0,0,1-.382-.114c-.1-.058-.156-.135-.148-.212.016-.153.3-.257.588-.234l.715.058.568-5.507-5.39-.438c-3.718-.3-6.9-.708-9.632-1.168l-8.8,9.552a.689.689,0,0,1-.56.208l-1.974-.161a.584.584,0,0,1-.561-.742l1.807-5.229-.445-.036a.883.883,0,0,1-.382-.114c-.1-.058-.156-.135-.149-.211.016-.155.3-.259.589-.235l.578.047,1.268-3.663-.48-.039a.888.888,0,0,1-.382-.114c-.1-.058-.155-.135-.147-.211.016-.155.3-.259.587-.236l.61.05.258-.747a25.969,25.969,0,0,1-5.8-2.441l-3.638-.3c-.741-.06-1.411-.442-1.37-.842.021-.2.209-.367.489-.476a2.381,2.381,0,0,1,1.03-.13l3.638.3a26.993,26.993,0,0,1,6.2-1.465l-.1-.776-.611-.05c-.285-.023-.545-.171-.529-.326.008-.076.081-.142.187-.183a.915.915,0,0,1,.4-.051l.479.039-.5-3.807-.578-.047c-.287-.023-.547-.171-.53-.326.008-.078.08-.142.189-.183a.906.906,0,0,1,.4-.051l.445.036-.708-5.433a.614.614,0,0,1,.7-.641l1.974.161a.659.659,0,0,1,.508.3l6.7,10.813c2.776-.012,5.992.1,9.71.406l5.389.438.567-5.507-.716-.058c-.287-.023-.547-.172-.531-.326.008-.076.081-.142.189-.183a.911.911,0,0,1,.4-.051l.716.058.258-2.506L998.33,231.4l-.7-.057c-.287-.023-.547-.17-.531-.325.008-.077.081-.143.189-.185a.931.931,0,0,1,.4-.051l.474.039-4.9-16.719a.443.443,0,0,1,.505-.53l3.221.262a1.4,1.4,0,0,1,1.115.677l6.446,11.473,4.254.346a.36.36,0,0,1,.353.377l-.42,4.08a.381.381,0,0,1-.425.314l-.93-.076,3.127,5.565,3.78.307a.361.361,0,0,1,.353.377l-.42,4.08a.381.381,0,0,1-.425.315l-.456-.037,3.167,5.633,13.613,1.107c7.333.6,12.807,3.664,12.636,5.324" transform="translate(-896.509 -178.957)" fill="#3ec3de"/>
      <path id="Path_209" data-name="Path 209" d="M36.116,77.047l-.007-1.3c1.811-.008,3.647-.033,5.457-.075l.038,1.3c-1.82.042-3.666.067-5.487.075M29.532,77c-1.818-.032-3.663-.081-5.485-.146l.059-1.3c1.812.065,3.647.114,5.454.146Zm18.651-.255-.073-1.295c1.806-.081,3.639-.18,5.447-.294l.1,1.294c-1.819.115-3.662.214-5.477.3m-30.712-.2c-1.82-.106-3.661-.23-5.472-.37l.126-1.292c1.8.138,3.631.262,5.441.368Zm42.751-.58-.139-1.291c1.8-.154,3.63-.326,5.427-.512l.169,1.288c-1.807.187-3.643.36-5.457.515M5.447,75.6C3.634,75.419,1.8,75.219,0,75.005L.193,73.72c1.791.213,3.613.411,5.416.591Zm255.318-.824-.046-1.3c1.812-.051,3.648-.114,5.459-.186l.066,1.3c-1.817.073-3.66.135-5.478.187M72.209,74.7,72,73.42c1.8-.226,3.612-.471,5.4-.729l.234,1.28c-1.794.259-3.619.506-5.425.734m200.6-.423-.088-1.294c1.809-.1,3.643-.207,5.451-.325l.107,1.293c-1.814.119-3.654.229-5.47.326m12.026-.8-.13-1.292c1.8-.143,3.635-.3,5.438-.464l.149,1.29c-1.81.165-3.646.322-5.457.466M84.12,72.959l-.27-1.274c1.778-.3,3.579-.616,5.353-.947l.3,1.269c-1.784.332-3.595.653-5.382.952m212.713-.587-.172-1.288c1.759-.185,3.545-.384,5.31-.59l.19,1.286c-1.771.207-3.563.406-5.328.592m-200.9-1.637-.335-1.262c1.768-.371,3.55-.762,5.3-1.163l.365,1.255c-1.758.4-3.55.8-5.327,1.17m11.683-2.7-.4-1.247c1.745-.442,3.5-.906,5.231-1.38l.43,1.239c-1.736.476-3.506.943-5.261,1.388m62.806-.729c-1.779-.5-3.531-1.038-5.207-1.6l.514-1.213c1.652.552,3.38,1.083,5.134,1.576ZM119.14,64.848l-.466-1.229c1.717-.514,3.45-1.051,5.153-1.6l.5,1.22c-1.712.549-3.455,1.089-5.182,1.605M159.1,63.44c-1.688-.693-3.347-1.433-4.932-2.2l.7-1.138c1.556.755,3.185,1.482,4.844,2.163Zm-28.616-2.254-.532-1.207c1.8-.627,3.454-1.226,5.045-1.831l.574,1.192c-1.605.611-3.27,1.214-5.087,1.847M148.5,58.169c-1.363-.823-2.7-1.7-3.983-2.606-.953.45-1.936.9-2.941,1.335l-.643-1.164c1.679-.732,3.3-1.487,4.809-2.244l.716,1.13-.544.27c1.1.766,2.247,1.506,3.408,2.207ZM152.1,51.52l-.823-1.071c1.527-.925,2.984-1.892,4.333-2.874l.925,1c-1.381,1.006-2.873,2-4.435,2.942m-12.967-.235c-1.314-1.171-2.567-2.4-3.723-3.642l1.125-.825c1.127,1.214,2.349,2.409,3.631,3.551Zm22.286-6.727-1.065-.886.044-.041a37.771,37.771,0,0,0,3.4-3.631l1.181.762a39.138,39.138,0,0,1-3.528,3.77Zm-29.924-1.694a42.116,42.116,0,0,1-2.708-4.3l1.313-.566a40.782,40.782,0,0,0,2.627,4.174Zm36.956-7.171-1.3-.581a30.058,30.058,0,0,0,2.042-4.4l1.388.4a31.268,31.268,0,0,1-2.125,4.582m-42.114-2.646a31.815,31.815,0,0,1-1.256-4.82l1.441-.2a30.668,30.668,0,0,0,1.21,4.641ZM172,25.291l-1.451-.141a22,22,0,0,0,.167-2.687c0-.683-.034-1.369-.1-2.039l1.454-.114c.07.708.106,1.432.106,2.153A23.144,23.144,0,0,1,172,25.291m-45.9-2.958-1.459-.038a24.553,24.553,0,0,1,.673-4.938l1.427.272a23.37,23.37,0,0,0-.641,4.7m43.151-7.424-.027-.066a17.653,17.653,0,0,0-2.409-4.088l1.2-.738a18.9,18.9,0,0,1,2.579,4.379l.027.066Zm-40.482-2.662-1.321-.551a22.782,22.782,0,0,1,2.914-4.269l1.156.791a21.494,21.494,0,0,0-2.75,4.029m33.757-5.659a26.483,26.483,0,0,0-4.391-2.66l.695-1.14A27.965,27.965,0,0,1,163.467,5.6ZM136.072,4.325l-.836-1.063a21.634,21.634,0,0,1,3.9-1.906c.37-.137.75-.265,1.132-.382l.476,1.226c-.353.108-.7.227-1.047.353a20.123,20.123,0,0,0-3.629,1.771M152.2,1.877a24.677,24.677,0,0,0-5.243-.58V0a26.3,26.3,0,0,1,5.591.617Z" transform="translate(-108.121 -0.001)" fill="#3ec3de"/>
    </g>
  </g>
</svg>
